<?xml version="1.0" encoding="UTF-8"?>
<svg id="a" xmlns="http://www.w3.org/2000/svg" version="1.1" viewBox="0 0 13 13">
  <!-- Generator: Adobe Illustrator 30.3.0, SVG Export Plug-In . SVG Version: 2.1.3 Build 182)  -->
  <path d="M7.58,12.13c-.61.23-1.28.22-1.87.02-.59-.2-.99-.71-1-1.32,0-.38.03-.75.13-1.12l.67-2.42c.1-.36.16-.72.13-1.08-.05-.72-1.02-.62-1.71-.32l.15-.67c.99-.38,1.94-.81,3-.46.58.19.99.7.99,1.32,0,.35-.01.71-.11,1.05l-.68,2.48c-.1.35-.15.71-.14,1.06.01.31.19.5.48.56.43.08.83-.01,1.27-.19l-.16.66-1.16.43h0Z" fill="#666"/>
  <path d="M8.49,3.12c-.58.41-1.35.36-1.87-.1-.58-.51-.6-1.38-.03-1.91.59-.56,1.52-.55,2.09.03.57.58.49,1.5-.19,1.98Z" fill="#666"/>
</svg>