<?xml version="1.0" encoding="UTF-8"?>
<svg id="map" xmlns="http://www.w3.org/2000/svg" baseProfile="tiny" version="1.2" viewBox="0 0 1124 683.33">
  <!-- Generator: Adobe Illustrator 30.3.0, SVG Export Plug-In . SVG Version: 2.1.3 Build 182)  -->
  <g id="zones">
    <g id="zone-4">
      <path d="M253.42,303.75c-6.83-4.59-16.47-6.88-22.1-.09l-30.84,37.22-42.25,51.61-40.36,44.15c-4.92,5.39-10.82,6.47-17.08,2.06-1.89-1.33-4.56-2.14-5.46-4.42s-1.67-5.47.23-7.74l9.08-10.86c1.61-1.92,3.58-2.09,6.18-1.96,7.13.38,14.62-2.39,19.58-8.38l96.31-116.18c13.03-15.72,27.19-29.61,43-42.51l72.19-58.88c1.53-1.25,2.46-2.29,4.31-2.11,1.5.14,3.67.52,4.44,2.66l35.53,98.22c4.72,13.05,11.89,24.04,20.49,34.64,3.32,4.08,3.03,9.97.29,13.99l-13.86,20.36c-3.85,5.66-1.05,12.14,3.96,15.66s9.56,7.06,14.2,10.85c6.34,5.19.16,16.77-4.62,18.49-3.52,1.25-6.14.47-9-1.41l-55.2-36.26-23.67-15.23-65.37-43.88h.02Z" fill="#e5e5e5"/>
      <path d="M430.72,306.98c-6.19-7.33-12.12-14.19-15.44-23.01l-21.51-57.26c-1.69-4.5,6.06-5.96,9.8-6.74,5.52-1.14,10.39,2.19,11.46,7.79l24.62,67.05c1.53,4.19-.14,9.05-2.47,12.32-1.6,2.24-4.75,1.86-6.44-.16h-.02,0Z" fill="#e5e5e5"/>
      <path d="M383.67,197.04l-10.18-27.44c-1.15-3.11-2.86-6.06-5.61-8.04-1.87-1.35-3.51-4.85-.95-6.28l12.77-7.18c2.93-1.65,6.72-.06,8,3.15l12.01,30.03c3.25,8.14-.86,17-9.54,18.97-2.37.54-5.57-.65-6.52-3.21h.02Z" fill="#e5e5e5"/>
      <path d="M345.21,152.81c-20.37-12.71-5.63-30.11-18.18-31.19-11.24-.97-13.35-1.76-22.49,2.77-5.96,2.96-11.25.58-14.39-4.95-1.87-3.29-3.63-7.78.09-10.75,3.52-2.8,5.53-7.23,2.85-11.55l-18.32-29.43c-1.18-1.91-2.49-3.35-4.12-3.78-2.52-.67-4.42.1-5.99,1.02h0l-3.21,1.82c-.32.09-.63.13-.93.07.09.07.19.17.29.29l-75.58,42.79-12.23,6.67h0l-11.71,6.38c-.47.26-.82.59-1.1.92l-38.47,21.94h0c-2.5,1.42-5.43,4.09-3.59,7.56l27.53,52.01c4.19,7.93,1.25,17.17-6.7,21.68-8.55,4.85-17.78,8.35-26.9,12.32-2.57,1.12-3.22,2.73-4.39,5.15l-11.88,24.67c-5.6,11.63-1.28,15.28,2.06,24.95.62,1.81,2.9,2.87,4.86,2.04l65.66-28.2c9.35-4.02,19.05-3.13,27.67,1.86,3.37,1.96,8.59,2.22,11.39-.93,10.68-11.99,21.27-23.38,33.48-33.86l28.71-24.66h0l55.53-45.24,10.32-7.45c3.02-2.18,6.77-1.86,9.73-4.92v-.02.02h0Z" fill="#e5e5e5"/>
      <path d="M79.17,229.59c-9.63-7.55-10.92-14.66-19.36-12.26-14.29,4.06-27.35,10.75-32.72,25.4-2.59,7.06-2.9,14.65.05,21.71,5.15,12.39,9.22,24.8,15.71,36.65,3.55,6.47,20.94,19.67,28.26,10.39,1.8-2.29,1.91-5.51.48-8.29-3.71-7.23-6.18-14.72-7.2-22.79-.02-.4-.06-.81-.14-1.25-.08-.71-.14-1.43-.2-2.15-.13-10.89,11.17-30.96,11.17-30.96h0c1.94-3.21,3.89-6.56,5.52-10.09.95-2.04.29-4.95-1.56-6.39h0v.03h-.01Z" fill="#e5e5e5"/>
      <path d="M442.45,81.86c3.83-1.43,7.63-3.11,11.72-5.07-5.15-9.41-10.19-18.11-16.86-26.14-13.28-16.01-31.91-23.69-51.48-13.31l-38.26,20.3c-1.03.54-2.06.96-2.3,1.85-.23.86.03,1.98.55,3.06,9.23,19.25,13.84,39.62,14.75,60.97.04.97.38,1.91.99,2.34.44.31,1.42.32,2.23-.16l26.38-16.16,52.28-27.68h.01,0Z" fill="#e5e5e5"/>
    </g>
    <g id="zone-2">
      <path d="M797.99,519.67c2.68,12.14,17.43,6.01,23.21,25.3,6.72,22.44,3.38,46.43-7.84,66.91-1.2,2.19-2.29,4.01-3.85,4.54-2.81.93-5.25.88-7.74-.7l-129.18-81.98c-6.96-4.42-6.62-15.33-4.11-21.44,1.91-4.65,4.37-7.44,6.8-11.3,6.73-10.69.85-14.22,6.34-17.2,1.54-.84,4.27-1.48,5.86-.27,9.68,7.31,18.88,14.62,29.16,21.02,16.57,10.32,35.81,12.64,52.56,1.35,6.8-4.58,13.51-9.06,20.82-12.62,4.27-2.08,8.33-.7,11.39,2.37,10.37,10.38-6.06,12.11-3.44,24h.02v.02h0Z" fill="#e5e5e5"/>
      <path d="M670.95,458.13c-2.36,4.29-5.85,6.63-10.06,4l-10.96-6.85c-.71-.45-30.54-20.18-31.52-22.32-1.04-2.28,2.67-8.73,6.5-8.73,1.74,0,23.75,14.45,24.06,13.9,0,0,1.72-.63,1.91-.96,9.16-16.12,36.66-64.46,36.66-64.46,1.29-3.46,5.17-5.55,8.34-3.56l14.06,8.84c1.51,2.09,2.37,4.92.97,7.46l-39.98,72.69h.02Z" fill="#e5e5e5"/>
      <path d="M764.01,371.48c-1.3,2.74-5.02,4.01-7.72,2.28l-46.17-29.67c-1.76-1.13-1.68-4.8-.9-6.38l8.72-17.76c2.3-1.92,5.7-3.18,8.55-1.62l24.75,13.46c4.87,2.65,5.68,8.73,3.23,13.24-1.1,2.02-7.83,9.52-4.36,12.54,6.42,5.58,15.45,10.66,13.91,13.88h0v.02h0Z" fill="#e5e5e5"/>
      <path d="M658.57,559.18c-11.47-7.14-14.91-13.33-19.56-23.83-6.44-15.67-1.25-28.87,1.69-34.42.22-.34.42-.71.65-1.09l1.03-1.72h0l3.27-5.46c1.47-2.46-.03-4.93-1.79-7.18l-35.94-24.04c-2.76-1.84-7.26-2.31-9.24.97l-26.36,43.76c-3.71,6.16-1.96,13.83,4.82,16.87l41.56,25.83,62.01,38.05c1.55.95,24.22,14.45,25.64,14.73,2.13-2.88,3.84-5.79,6.05-8.86-9.63-7.66-43.02-26.89-53.83-33.61h0Z" fill="#e5e5e5"/>
    </g>
    <g id="zone-3">
      <path d="M571.25,386.79l43.86,28.63c3.43,2.24,5.3,5.15,3.98,9.15-.83,2.51-4.8,6.94-8.41,4.54l-163.86-108.95c-2.52-1.68-4.39-2.44-3.4-5.63,1.04-3.38,4.33-5.86,7.4-4.19,4.16,2.26,10.87,6.25,13.14,7.7l71.58,46.31s7.29-9.21,18.65-3.33c10.1,5.23,4.51,17.94,4.51,17.94l12.56,7.84h-.02,0Z" fill="#e5e5e5"/>
    </g>
    <g id="zone-1">
      <path d="M857.83,319.85c-1.71-.37-5.24-.22-6.37,1.84l-25.67,46.39c-1.48,2.66-2.92,4.59-5.62,5.18-2.67.57-5.07-.19-7.6-1.93-3.13-2.14-8.79-3.25-11,.65l-7.4,13.08s-16.66-9.72-23.97-11.09c-1.9-.36-4.59,5.28-2.85,6.77,7.16,6.15,31.78,20.17,34.07,21.53.01,0,.02.01.04.02,5.71,3.88,18.41,8.64,28.35,9.28,7.92.51,10.92-13.99,13.78-21.56,0-.03.01-.05.02-.08,8.42-21,14.94-42.4,18.16-64.95.39-2.7-2.22-4.76-3.92-5.14h-.02Z" fill="#e5e5e5"/>
      <path d="M944.95,264.41h0c-.2-.22-.41-.43-.62-.64-.06-.06-.11-.11-.16-.17-8.41-8.84-11.15-19.32-12.02-26.17-.28-4.36-.41-8.75-.42-13.3,0-2.19-2.37-3.62-4.62-3.15l-29.09,46.12c-2.27,3.59-3.05,6.99-3.42,11.25l-2.94,33.78h0c-6.65,51.45-27.14,109.44-46.72,126.87-6.62-.2-21.11,4.94-48.3-6.28-4.44-1.84-8.66,1.95-11.09,4.92-4.78,5.84-4.66,13.04.62,18.31l15.38,15.34c8.27,8.24,0,12.29,8.16,19.83,3.78,3.5,9.05,3.74,12.67-.11l19.4-20.72c2.54-2.71,4.72-5.65,6.36-8.79h0c22.96-34.41,32.5-93.6,46.45-110.58,4.6-5.6,41.39-7.26,38.73,1.49-2.5,8.2-7.82,19.76-4.46,22.1,4.1,2.85,6.95-3.03,8.2-7.49l15.17-43.2,10.92-31.27,3.27-13.78s-8.11-.62-21.46-14.35h0ZM935.91,337.34c-11.35-5.18-19.72-7.3-28.46-8.27-9.08-1-11.27-23.91-1.43-27.56,5.38-2,26.61,5.64,34.29,12.01,3.98,3.3,4.36,27.81-4.4,23.82h0Z" fill="#e5e5e5"/>
      <path d="M1094.09,81.16l-46.06-22.84c-5.23-3.18-14.06-3.25-17.89,2.57l-48.54,73.88c-3.48,5.29-8.97,7.99-15.04,5.05l-10.51-5.08c-6.14-2.97-13.02.72-14.5,7.38l-11.31,26.95-9.75,4.94-21.39,22.81-7.7-5.39c-1.65-1.15-3.92-.75-5.07.91l-9.53,13.79c-1.15,1.66-1.05,3.88.23,5.44l13.36,16.22c.95,1.16,2.76,1.05,3.56-.22,4-6.37,14.4-22.9,19.23-30.57,4.6-7.31,11.92-6.99,16.06-6.08.11.05.22.1.34.14,5.38,1.78,10.37,3.4,15.27,5.85,11.23,5.61,16.38,17,14.11,29.23-1.04,5.59,1.99,11.15,4.15,16.01,2.91,6.55,8.02,10.27,14.84,11.96,9.53,2.37,16.9,9.43,19.03,18.86.16.89.32,1.73.44,2.46.09.73.07,1.44.11,2.09-.26,7.86-6.36,23.81-6.36,23.81l-23.45,65.53c-.19.52-.35,1.03-.49,1.53l-69.18,196.13-.05.12-.9,2.57-10.79,30.82c-.13.37-.25.73-.37,1.08-2.12,5.28-6.34,13.65-13.36,19.35-1.76,1.21-3.54,2.37-5.35,3.46-.77.39-1.43.78-1.99,1.2-2.27,1.35-4.57,2.67-6.87,4.03l-27.3,15.6c-.54.32-1.1.67-1.65,1.03-7.42,4.8-15.87,7.32-24.57,5.51-5.89-1.22-10.21-4.47-15.24-7.62l-77.22-48.86c-2.16,2.72-4.34,6.47-6.05,8.86l80.95,47.15c8.54,5.06,16.9,8.09,26.62,10.09,25.15,5.16,50.77,2.13,73.32-10.34,18.06-9.99,31.99-25.43,38.97-45.05l27.61-77.66,41.15-118.08,56.04-161.69c3.1-8.95,4.87-17.38,8.65-25.92,2.92-6.61,6.14-12.61,9.94-18.82l24.95-40.8c3.2-5.23,1.1-11.84-4.17-14.44l-5.98-2.96c-5.33-2.64-7.24-9.01-4.37-14.42l18.39-34.65v-.04c1.35-4.83.41-10.54-4.32-12.88h0Z" fill="#e5e5e5"/>
    </g>
    <g id="paddock_zone">
      <path d="M928.33,391.08c-1.96,10.34-30.54,96.38-41.88,128.14-7.15,20.03-28.41,76.63-30.83,79.31-7.6,8.39-26.04,15.62-31.37,17.11-3.83,1.07-12.34,6.15-8.55-1.43,7.13-14.26,31.34-62.48,36.12-74.14,1.69-4.13,1.93-7.84-1.01-9.53-7.06-4.06-21.39-12.56-24.06-18.62-1.53-3.46-.61-6.75,1.25-9.09,10.34-13.01,33.85-45.78,40.63-62.02,7.37-17.63,18.36-54.89,21.39-63.27s5.82-9.09,11.58-8.02c9.2,1.71,13.71,3.91,22.28,7.66,5.73,2.51,6.07,5.37,4.46,13.9h-.01Z" fill="#e5e5e5"/>
    </g>
  </g>
  <g id="track">
    <path d="M613.03,305.81c-22.56-14.74-38.06-32.39-51.68-55.5l-89.21-151.33c-.99-1.67-1.85-3.36-3.03-4.03-1.25-.72-3.97-.65-5.55-.03-13.2,5.25-25.41,11.02-37.72,18.21l-58.77,34.33c-5.95,3.48-12.55,3.66-18.47.36-5.3-2.97-8.47-8.85-8.8-15.78-1.07-22.24-3.52-41.38-13.44-61.68l-12.65-25.89c-.87-1.78-2.87-3.76-5.11-3.62-10.36.59-20.25,2.51-29.21,7.58l-38.52,21.78-54.39,30.77-10.16-2.06,2.4-9.49,85.28-48.42c13.97-7.93,28.42-13.25,44.5-13.71,7.18-.21,13.75,3.36,16.89,9.71l14.29,28.9c8.03,16.24,11.96,33.68,13.32,51.81l1.17,15.55c.06.85,1.1,2.34,1.86,2.73s3.11.43,3.85,0l62.39-36.5c11.78-6.89,23.89-12.48,36.33-17.21,10.77-4.1,19.78.15,25.29,9.47l95.76,162c8.4,14.21,20.86,26.92,34.31,35.85l51.02,33.86-9.4,1.83,1.26,9.16-43.82-28.64h.01,0Z"/>
    <path d="M487.77,372.79l8.69-2.2-1.23-9.56,168.44,112.55c5.73,3.83,7.96,12.14,6.65,17.91-2.61,11.45-17.3,17.73-11.63,36.73,1.83,6.12,5.75,9.94,11.21,13.31l74.72,46.19,60.88,39.3c3.25,2.1,6.53,2.47,9.91.48l42.07-24.67c3.31-1.94,4.33-4.51,5.61-8.09l38.27-107.19,52.88-148.04,9.47-3.89,3.51,9.31-34.1,97.72c-18.77,53.95-36.73,107.58-57.15,160.82-1.87,4.89-6.33,8.42-10.57,10.9l-43.02,25.15c-7.63,4.47-16.34,4.36-23.75-.42l-38.32-24.7-99.11-61.95c-9.09-5.68-14.93-13.91-16.83-24.37-5.45-29.93,19.65-37.78,10.27-44.04l-94.43-63.05-72.42-48.21h-.02ZM879.41,572.45l-.02.02"/>
    <path d="M884.74,308.1c-1.86,22.73-6.05,43.97-13.1,65.25-5.16,15.56-10.67,30.26-16.95,45.35-3.33,8.01-10.52,13.28-19.25,13.78-16.75.97-32.82-3.73-46.82-12.72l-34.09-21.86-91.3-59.09-2.01-9.55,10.36-1.76,107.62,69.93c8.46,5.5,16.29,10.56,25.09,15.18s18.95,6.12,28.76,6.59c3.49.16,7.18-1.92,8.49-5.02,11.86-28,25.09-63.72,27.92-93.86l4.24-45.27c.65-6.99,2.53-13.5,6.37-19.41l32.16-49.5c3.63-5.58,10.64-8.37,17.02-7.31,5.51.91,10.66,3.3,15.08,6.32,6.06,4.14,8.52,10.83,7.9,18.03-1.03,11.75,2.72,23.56,11.38,31.59,3.89,3.61,8.79,5.1,13.76,6.96,8.94,3.33,15.23,12.44,11.76,22.19l-19.21,53.89-3.81-8.22-9.23,3.08,18.28-51.34c3.31-9.33-9.35-5.87-19.94-15.25-12.37-10.96-18.11-27.16-16.76-43.69.52-6.45-3.13-7.1-10.09-9.88-1.16-.47-4.16.22-4.85,1.3l-32.81,50.97c-2.12,3.3-3.07,7.73-3.38,11.51l-2.6,31.81h.01Z"/>
    <path d="M439.59,323.38l48.9,33.09,2.46,10.59-9.64,1.43-49.44-33.53c-17.71-12.01-31.06-28.49-38.37-48.68l-38.93-107.68c-.68-1.89-2.28-3.33-3.89-3.78-1.4-.39-3.81.16-5.29,1.35l-78.48,63.32c-15.89,12.82-30.04,26.63-43.17,42.24l-56.29,66.93-42.42,52.08c-4.78,5.87-12.64,7.46-19.19,4.84-6.14-2.45-10.45-8.79-10.28-16.21l.49-21.46c.32-13.96-2.54-27.15-7.67-40.05l-13.68-34.38c-3.94-9.88-3.93-20.24.36-30.22,3.94-9.17,8.64-17.92,13.29-26.7,2.27-4.29.72-7.73-2.93-10.45-7.64-5.71-14.34-12.71-17.43-21.94-5.19-15.51-5.32-32.16-1.33-47.89,5.12-20.2,24.49-17.88,38.32-25.62l67.23-37.66-1.59,8.95,9.13,2.72-60.83,34.06c-9.46,5.3-18.85,9.26-29.3,11.81-5.28,1.28-8.62,4.95-9.88,10.1-2.56,10.49-2.48,21.04-.67,31.73,1.48,8.77,5.85,16.07,12.95,21.41,9,6.77,14.56,16.84,9.18,27.71l-12.54,25.35c-3.56,7.19-4.01,14.49-1.1,21.78l13.31,33.33c5.99,15,9.74,30.41,9.19,46.64l-.72,20.94c-.04,1.08,1.03,3.01,1.93,3.23,1.35.32,2.92-.49,4.01-1.81l92.31-111.76c15.91-19.26,33.22-36.54,52.65-52.2l77.23-62.22c5.06-4.08,11.86-4.62,17.94-2.91,5.42,1.52,9.98,6.09,12.21,12.32l37.29,103.65c6.72,18.68,17.83,34.14,34.66,45.53v.02h.02Z"/>
    <g>
      <polygon points="892.24 537.3 886.83 535.17 889.02 529.13 894.23 531.26 896.55 525.62 891.08 523.19 893.13 517.31 898.7 519.23 900.72 513.58 895.45 511.18 897.4 505.28 903.27 507.28 905.19 501.26 899.65 499.13 901.97 493.04 907.51 494.93 909.55 489.15 904.07 486.75 905.96 480.88 911.7 482.68 913.76 476.9 908.39 474.5 910.54 468.63 916 470.68 917.99 464.8 912.67 462.75 914.53 456.62 920.18 458.66 922.56 452.66 928.02 454.69 925.97 460.78 920.56 458.98 918.27 464.55 923.74 466.93 921.62 472.71 916.29 470.98 914.1 476.57 919.38 479.13 917.32 484.85 911.93 483.06 909.74 488.91 915.18 490.93 913.07 497.15 907.63 495.28 905.47 501.2 910.89 503.29 908.78 509.23 903.3 507.33 901.14 513.18 906.44 515.64 904.36 521.36 898.87 519.42 896.64 525.2 902.13 527.48 899.92 533.32 894.61 531.63 892.24 537.3" fill="#fff"/>
      <polygon points="887.93 549.23 882.59 547.07 884.39 541.07 890.03 543.07 892.24 537.58 897.83 539.54 895.51 545.42 890.39 543.45 887.93 549.23" fill="#fff"/>
    </g>
  </g>
  <g id="stands-zone4">
    <path id="grandstand-padangA" d="M267.95,83.82l-33.14,20.87-9.15-14.42c-.39-.62-.65-2.96,0-3.3l2.62-1.41,31.68-19.32,8.27,12.3c1.18,1.75,1.63,4.08-.27,5.28h0Z" fill="#9e9e9e"/>
    <path id="grandstand-padangB" d="M134.43,161.46c-1.57,1.51-9.58-13.51-10.85-16.31l32.65-19.77c.61-.37,2.37-.91,2.75-.5,1.28,1.36,7.86,12.2,8.95,16.12l-33.51,20.47h.01Z" fill="#9e9e9e"/>
    <path id="grandstand-connaught" d="M278.15,205.17c-1.56,1.26-2.99,2.57-4.51,2.88l-7.99-8.75c-.67-.75-1.67-2.26-1.73-3.09-.08-1.01,1.13-2.38,2.31-3.33l44.66-36.47c.71-.58,2.45-1.06,2.99-.83.67.28,1.48,1.08,2.1,1.88l7.05,9.22c.57.74-.85,2.8-1.65,3.45l-43.23,35.05h0Z" fill="#9e9e9e"/>
    <path id="grandstand-stamford" d="M396.25,106.93c-1.91,1.02-3.46.67-4.16-.94-3.2-7.3-6.73-11.05-6.89-15.44l40.22-21.48c.94-.5,2.38-1.28,3.15-1.43.9-.16,2.5,1.41,2.94,2.25l6.66,12.99c-.57,1.78-2.38,3.06-4.21,4.04l-37.71,20.02h0Z" fill="#9e9e9e"/>
    <path id="grandstand-empress" d="M71.85,253.32l-8.49,23.62c-.44,1.24-2.3,1-3.27.63l-13.58-5.11,9.11-25.66c.72-2.02,2.49-2.34,4.38-1.66l9.99,3.64c2.24.82,2.67,2.29,1.86,4.54h0Z" fill="#9e9e9e"/>
  </g>
  <g id="stands-zone2">
    <path id="bayfront-grandstand" d="M633.38,538.9l-12.67-.82c-1.18-1.27-1.05-3.93-.95-5.66l.37-6.14.57-17.52.64-11.1,16.34.37c1.18,2.22,1.04,4.62.95,6.95l-.75,18.77-.33,12.55c-.01.68-.46,2.16-.95,2.41-.61.3-1.82.28-3.2.19h-.02Z" fill="#9e9e9e"/>
    <path id="grandstand-skyline" d="M771.08,584.25l-4.19,6.51c-.7,1.17-2.21,1.55-3.38.85l-35.1-20.87c-1.41-.84-1.9-2.65-1.1-4.08l4.27-7.48c.32-.56,1.56-1.52,2.08-1.53.65-.02,1.72.53,2.54,1.04l22.64,13.83,12.78,7.61c1.39.9.01,3.2-.54,4.12h0Z" fill="#9e9e9e"/>
  </g>
  <g id="stands-zone1">
    <path id="sky-suite-turn2" d="M1035.74,242.93l-47.81-18.66c-1.08-.42-2.31-.04-2.98.9-1.22,1.7-1.94,3.13-2.58,4.87l-.56,1.51c-.34.92.12,1.94,1.03,2.29l40.35,15.74c1.36.54,2.06,2.05,1.57,3.44l-2.56,7.15c-.23.64.11,1.34.76,1.56l6.81,2.27c.63.21,1.31-.12,1.53-.74l6.01-16.9c.48-1.38-.21-2.9-1.57-3.44v.02h0Z" fill="#9e9e9e"/>
    <path id="sky-suite-turn1" d="M1014.97,281.03l-9.73,26.32c-.44,1.21.19,2.54,1.39,2.97,1.67.6,2.82,1,2.82,1,1,.38,2.64,1.11,3.34.64.57-.4,1.51-1.85,1.79-2.6l12.94-35,2.37-6.71c.17-.49-.08-1.01-.57-1.17l-7.21-2.4c-.57-.19-1.19.11-1.39.68l-5.75,16.26h0Z" fill="#9e9e9e"/>
    <path id="grandstand-turn2" d="M1020.07,255.05c.45-1.28-.19-2.69-1.46-3.18l-37.6-14.67c-.74-.29-1.58.09-1.86.84l-1.12,3.02c-.5,1.36-1.2,2.76-1.44,4.27-.18,1.16.51,2.29,1.6,2.7l19.32,7.34c3.85,1.46,8.56,3.53,6.73,8.76,0,0-.21.63-.42,1.27-.13.38.08.8.46.92l9.63,3.18c.52.17,1.08-.1,1.26-.62l4.89-13.83h.01Z" fill="#9e9e9e"/>
    <path id="grandstand-turn1" d="M1003.86,268.87c-.62-.2-1.29.13-1.49.75-2.16,6.55-16.3,48.19-18.8,55.23-.49,1.38.21,2.28.77,2.5,1.44.55,4.27,1.57,6.95,2.54,1,.36,2.1-.16,2.47-1.15l17.07-47.58,2.82-7.96c.19-.53-.1-1.11-.63-1.28l-9.16-3.03v-.02h0Z" fill="#9e9e9e"/>
    <path id="grandstand-republic" d="M812.57,408.61c-1.38.2-3.45.25-4.11-.38s-.9-2.46-1.08-3.74l-1.74-12.36c-.16-1.13,2.06-2.42,3.21-2.58l24.04-3.34c.92-.13,2.42-.25,2.92.24s1.16,2.01,1.28,2.75l1.96,12.46c.32,2.05-1.51,3.82-3.57,3.58l-22.91,3.36h0Z" fill="#9e9e9e"/>
    <path id="grandstand-raffles" d="M844.12,447.57c.14,1.28-4.49,16.44-6.03,15.65l-19-6.23,3.75-12.78c.19-.67.76-1.73,1.12-2.22s2.24-.5,2.84-.3l17.32,5.87h0Z" fill="#9e9e9e"/>
    <path id="grandstand-chicane_x40_turn1" d="M970.08,286.46c-.65,1.83-1.45,3.54-2.41,5.13-.66,1.11-2.03,1.57-3.25,1.14l-21.83-7.75c-1.91-.68-3.15-2.02-2.24-4.24l4.03-9.7c.29-.71,2-1.76,2.75-1.47l19.44,7.31c1.41.53,2.89,1.22,4.28,1.98.93.51,1.34,1.63.98,2.62l-1.77,4.98h.02,0Z" fill="#9e9e9e"/>
    <path id="grandstand-chicane_x40_turn2" d="M932.64,266.54c-1.4.54-3.71.7-4.26-.82l-6.38-17.55c-.29-.79-.62-2.27-.55-2.95s1.38-1.83,2.09-2.06l10.18-3.38c.9-.3,1.86.17,2.18,1.06l6.9,19.24c.44,1.23-.18,2.58-1.39,3.06l-8.75,3.4h-.02Z" fill="#9e9e9e"/>
    <path id="grandstand-pit-exit" d="M958.51,316.5c-.57.87-1.65,1.23-2.63.88l-9.34-3.39c-1.66-.6-2.61-2.19-1.9-3.89,2.28-5.48,4.37-11.08,6.25-16.67.28-.82,1.89-2.43,2.62-2.15l10.76,4.2c1.2.47,1.82,1.8,1.39,3.02l-5.31,15.17-1.85,2.83h.01Z" fill="#9e9e9e"/>
    <rect id="lounge-turn3" x="955.74" y="174.96" width="13.91" height="40.28" rx="2.29" ry="2.29" transform="translate(212.16 828.77) rotate(-51.63)" fill="#9e9e9e"/>
    <rect id="lounge-turn31" x="975.39" y="172.53" width="26.01" height="13.72" rx="1.98" ry="1.98" transform="translate(434.43 1017.38) rotate(-66.82)" fill="#9e9e9e"/>
    <rect id="lounge-turn32" x="959.1" y="160.07" width="26.01" height="13.72" rx="1.98" ry="1.98" transform="translate(436.01 994.86) rotate(-66.82)" fill="#9e9e9e"/>
    <path id="observ_x40_turn3.5" d="M892.14,224.88l-8.53-5.74c-1-.67-1.34-1.97-.8-3.05l.51-1.01c.53-1.07.2-2.37-.79-3.04l-6.01-4.1c-1.1-.75-1.37-2.27-.6-3.36l9.1-12.77c.77-1.08,2.27-1.32,3.34-.55l16.98,12.24c1.01.73,1.29,2.1.65,3.16l-10.48,17.47c-.7,1.17-2.25,1.52-3.38.75h0Z" fill="#9e9e9e"/>
    <path id="grandstand-super-pit" d="M913.48,564.58c-.42,1.17-1.01,2.56-1.53,2.95-.62.47-2.12-.14-3.11-.49l-4.18-1.49c-.82-.3-2.54-1.18-2.82-1.91s.24-1.97.67-3.22l33.35-96c.63-1.82,3.3-1.71,4.39-1.28l4.22,1.82c1.33.57,1.99,2.08,1.52,3.44l-18.21,52.87-14.32,43.31h.02Z" fill="#9e9e9e"/>
    <path id="sky-suite-pit-straight" d="M934.26,551.47l-11.54-4.06c-1.05-.37-.36-2.5,0-3.49l54.33-157.53c.4-1.12,1.59-1.77,2.76-1.34l10.7,3.92c.37.13,1.38,1.11,1.26,1.47l-.64,1.85-54.31,157.17c-.37,1.06-.7,2.66-2.54,2.02h-.02Z" fill="#9e9e9e"/>
    <path id="grandstand-pit" d="M947.91,460.79c-.21.58-.31,1.36-.58,1.56-.33.25-1.29.31-1.71.16l-4.98-1.84c-1.68-.62-2.55-2.48-1.95-4.16l29.31-83.11c.29-.81,1.04-1.88,2.14-1.46l6.46,2.48c.92.35,1.39,1.37,1.06,2.3l-29.74,84.08h-.01Z" fill="#9e9e9e"/>
    <path id="twenty3-turn19" d="M916.65,580.83l-7.57,21.14c-.46,1.32-4.36,2.56-5.53,1.92l-9.7-5.28c-1.93-1.05-2.81-3.7-2-6.02l2.51-7.22,4.15-11.66c.84-2.36,2.71-4.21,4.94-3.19l10.93,5.01c1.75.8,3.15,2.85,2.29,5.31h-.02,0Z" fill="#9e9e9e"/>
    <path id="grandstand-promenade" d="M729.36,605.42l-5.62,9.03c-.7,1.17-2.21,1.55-3.38.85l-35.1-20.87c-1.41-.84-1.9-2.65-1.1-4.08l5.7-10c.32-.56,1.56-1.52,2.08-1.53.65-.02,1.72.53,2.54,1.04l22.64,13.83,12.68,7.7c1.69,1.07.11,3.11-.44,4.03h0Z" fill="#9e9e9e"/>
    <path id="grandstand-marina-bay" d="M853.36,651.11l-12.93,7.56c-.85.49-2.16,1.51-2.92,1.42-.88-.11-2.2-1.48-2.7-2.33l-4.87-8.37c-.55-.95-1.4-3.63-.47-4.18l15.47-8.99c1.45-.84,3.3-.37,4.17,1.06l6.1,10.06c.76,1.25-.48,2.97-1.84,3.77h0Z" fill="#9e9e9e"/>
  </g>
  <g id="stands-paddock">
    <path id="grandstand-pit-exit1" d="M923.28,407.85c-.57.87-1.65,1.23-2.63.88l-9.34-3.39c-1.66-.6-2.61-2.19-1.9-3.89,2.28-5.48,4.37-11.08,6.25-16.67.28-.82,1.89-2.43,2.62-2.15l10.76,4.2c1.2.47,1.72,1.77,1.39,3.02-1.2,4.62-5.31,15.17-5.31,15.17l-1.85,2.83h.01Z" fill="#9e9e9e"/>
  </g>
</svg>