<?xml version="1.0" encoding="UTF-8"?>
<svg id="a" xmlns="http://www.w3.org/2000/svg" version="1.1" viewBox="0 0 201 32">
  <!-- Generator: Adobe Illustrator 30.3.0, SVG Export Plug-In . SVG Version: 2.1.3 Build 182)  -->
  <path d="M112.97,32c-5.14-5.14-9.85-9.85-16.33-16.33h-470.01c-6.48,6.48-11.19,11.19-16.33,16.33H112.97h0Z" fill="#0b0e11"/>
  <path d="M106.11,15.67c4.85,4.85,7.57,7.57,12.44,12.44h9.27c-4.87-4.87-7.58-7.58-12.44-12.44,0,0-9.27,0-9.27,0Z" fill="#e8f02b"/>
  <path d="M121.79,15.67c4.85,4.85,7.57,7.57,12.44,12.44h9.27c-4.87-4.87-7.58-7.58-12.44-12.44h-9.27Z" fill="#e8f02b"/>
  <path d="M137.48,15.67c4.85,4.85,7.57,7.57,12.44,12.44h9.27c-4.87-4.87-7.58-7.58-12.44-12.44h-9.27Z" fill="#e8f02b"/>
  <path d="M153.16,15.67c4.85,4.85,7.57,7.57,12.44,12.44h9.27c-4.87-4.87-7.58-7.58-12.44-12.44h-9.27Z" fill="#e8f02b"/>
  <path d="M168.84,15.67c4.85,4.85,7.57,7.57,12.44,12.44h9.27c-4.87-4.87-7.58-7.58-12.44-12.44h-9.27Z" fill="#e8f02b"/>
</svg>