<?xml version="1.0" encoding="UTF-8"?>
<svg id="a" xmlns="http://www.w3.org/2000/svg" version="1.1" viewBox="0 0 78 937.17">
  <!-- Generator: Adobe Illustrator 30.3.0, SVG Export Plug-In . SVG Version: 2.1.3 Build 182)  -->
  <path d="M18.34,41.05l.98,1.69-.04.02,14.06,24.35,15.05-26.07h-2.72l-12.33,21.36-3.84-6.65,8.49-14.71h-19.65,0ZM22.31,43.31h11.77l-5.89,10.19-5.89-10.19h0Z" fill="#e8f02b"/>
  <g>
    <path d="M25.66,112.2h16.5v13h-3.63v-8.6h-3.04v8.6h-3.63v-8.6h-6.2v-4.4h0Z" fill="#fff"/>
    <path d="M32.77,145.53c-1.1,0-2.1-.17-3-.5s-1.67-.83-2.31-1.48c-.64-.66-1.13-1.5-1.48-2.51s-.53-2.19-.53-3.52v-1.45c0-1.33.18-2.51.53-3.52.35-1.01.85-1.85,1.48-2.51.64-.66,1.41-1.15,2.31-1.48s1.9-.5,3-.5h2.29c1.1,0,2.1.17,3,.5s1.67.83,2.31,1.48c.64.66,1.13,1.5,1.48,2.51s.53,2.19.53,3.52v1.45c0,1.33-.18,2.51-.53,3.52-.35,1.01-.85,1.85-1.48,2.51-.64.66-1.41,1.15-2.31,1.48s-1.9.5-3,.5h-2.29ZM32.59,132.68c-1.31,0-2.23.25-2.77.74s-.81,1.33-.81,2.52v1.72c0,1.19.27,2.03.81,2.52.54.49,1.47.74,2.77.74h2.68c1.31,0,2.23-.25,2.76-.74.54-.49.8-1.33.8-2.52v-1.72c0-1.19-.27-2.03-.8-2.52-.54-.49-1.46-.74-2.76-.74h-2.68Z" fill="#fff"/>
    <path d="M25.66,164.78v-4.93l5.04-4.38c.43-.37.84-.62,1.25-.77.41-.15.78-.22,1.1-.22.72,0,1.27.22,1.64.66s.56,1.03.56,1.78v2.18c0,.48.14.84.41,1.08.27.23.61.35,1.02.35h.73c.44,0,.78-.11,1.01-.34s.35-.6.35-1.13v-5.72h-13.11v-4.4h16.5v9.68c0,2.13-.35,3.7-1.06,4.71-.7,1.01-1.84,1.52-3.41,1.52h-.95c-.69,0-1.3-.14-1.84-.42s-.99-.65-1.35-1.11-.65-1-.85-1.63c-.2-.62-.3-1.28-.3-1.97v-.53l-6.75,5.59h.01Z" fill="#fff"/>
    <path d="M25.66,167.26l11.79,1.03c1.76.15,3.03.63,3.81,1.44.78.81,1.17,1.84,1.17,3.09,0,1.33-.41,2.39-1.22,3.18s-1.92,1.29-3.33,1.51l-8.21,1.3c-.18.03-.31.08-.4.14-.09.07-.13.17-.13.32s.05.26.15.33.24.12.42.13l8.18,1.25c1.39.21,2.5.7,3.31,1.48s1.22,1.84,1.22,3.16c0,1.39-.39,2.43-1.18,3.11-.78.68-2.05,1.1-3.79,1.24l-11.79,1.03v-4.25l12.43-.88c.15-.02.27-.04.37-.08.1-.04.15-.13.15-.27,0-.12-.05-.21-.14-.29-.1-.07-.21-.12-.34-.13l-8.82-1.47c-1.17-.19-2.12-.66-2.84-1.42-.72-.76-1.08-1.75-1.08-2.98s.37-2.3,1.11-3.06,1.68-1.24,2.83-1.43l8.78-1.54c.16-.03.29-.08.37-.15.09-.07.13-.17.13-.29,0-.15-.05-.25-.15-.3-.1-.05-.23-.08-.4-.1l-12.41-.88v-4.25.03Z" fill="#fff"/>
    <path d="M25.38,201.19c0-2.46.55-4.22,1.65-5.28s2.63-1.58,4.6-1.58h10.54v4.4h-10.96c-.79,0-1.38.18-1.75.54s-.56.98-.56,1.86v2.51c0,.82.19,1.42.56,1.79s.96.56,1.75.56h10.96v4.4h-10.54c-.98,0-1.86-.11-2.64-.34-.78-.23-1.43-.6-1.97-1.12-.54-.52-.94-1.22-1.22-2.1-.28-.88-.42-1.97-.42-3.26v-2.38h0Z" fill="#fff"/>
    <path d="M25.66,214.23h16.5v4.4h-12.87v8.38h-3.63v-12.78Z" fill="#fff"/>
    <path d="M25.66,243.67l3.45-1.3v-7.72l-3.45-1.32v-4.44l13.31,5.48c1.04.43,1.88.95,2.51,1.57.63.62.95,1.48.95,2.58s-.31,2.04-.94,2.69c-.62.65-1.45,1.18-2.48,1.6l-13.35,5.43v-4.58h0ZM38.18,238.15l-5.65-2.18v5.1l5.65-2.13c.1-.04.19-.09.27-.14s.12-.14.12-.25c0-.1-.04-.18-.11-.24-.07-.06-.17-.11-.29-.15h.01Z" fill="#fff"/>
    <path d="M32.77,274.18c-1.1,0-2.1-.17-3-.5s-1.67-.83-2.31-1.48c-.64-.66-1.13-1.5-1.48-2.51s-.53-2.19-.53-3.52v-1.45c0-1.33.18-2.51.53-3.52.35-1.01.85-1.85,1.48-2.51.64-.66,1.41-1.15,2.31-1.48s1.9-.5,3-.5h2.29c1.1,0,2.1.17,3,.5s1.67.83,2.31,1.48c.64.66,1.13,1.5,1.48,2.51s.53,2.19.53,3.52v1.45c0,1.33-.18,2.51-.53,3.52-.35,1.01-.85,1.85-1.48,2.51-.64.66-1.41,1.15-2.31,1.48s-1.9.5-3,.5h-2.29ZM32.59,261.33c-1.31,0-2.23.25-2.77.74s-.81,1.33-.81,2.52v1.72c0,1.19.27,2.03.81,2.52.54.49,1.47.74,2.77.74h2.68c1.31,0,2.23-.25,2.76-.74.54-.49.8-1.33.8-2.52v-1.72c0-1.19-.27-2.03-.8-2.52-.54-.49-1.46-.74-2.76-.74h-2.68Z" fill="#fff"/>
    <path d="M25.66,277.59h12.1c.75,0,1.42.12,2,.37.59.25,1.07.58,1.46.98.39.4.69.88.89,1.43.21.55.31,1.12.31,1.71,0,1.41-.38,2.51-1.13,3.31-.76.8-1.75,1.45-2.98,1.95l-8.76,3.59c-.1.04-.2.09-.3.14-.1.05-.14.14-.14.25,0,.15.04.25.12.3s.19.08.34.08h12.58v4.4h-12.12c-.78,0-1.46-.12-2.05-.37s-1.07-.58-1.46-.98c-.39-.4-.68-.88-.87-1.43s-.29-1.12-.29-1.71c0-1.41.37-2.5,1.1-3.29s1.74-1.44,3.01-1.97l8.76-3.59c.1-.04.2-.09.3-.14.1-.05.14-.14.14-.25,0-.15-.04-.25-.12-.3-.08-.05-.19-.08-.34-.08h-12.56v-4.4h0Z" fill="#fff"/>
    <path d="M25.66,300.05h16.5v13.77h-3.63v-9.48h-2.86v9.48h-3.52v-9.48h-2.86v9.48h-3.63s0-13.77,0-13.77Z" fill="#fff"/>
  </g>
  <g>
    <path d="M38.88,661.35c-.2,0-.39-.08-.53-.23-.07-.07-.12-.15-.16-.24s-.06-.18-.06-.28c0-.2.08-.4.22-.54.29-.28.78-.28,1.06,0,.14.14.22.34.22.54,0,.1-.02.19-.05.28-.04.09-.1.17-.17.24-.14.15-.33.23-.53.23Z" fill="#e8f02b"/>
    <path d="M38.13,861.42c0-.42.34-.75.75-.75h0c.42,0,.75.33.75.75h0c0,.41-.33.75-.75.75h0c-.41,0-.75-.34-.75-.75ZM38.13,855.33c0-.41.34-.75.75-.75h0c.42,0,.75.34.75.75h0c0,.42-.33.75-.75.75h0c-.41,0-.75-.33-.75-.75ZM38.13,849.25c0-.42.34-.75.75-.75h0c.42,0,.75.33.75.75h0c0,.41-.33.75-.75.75h0c-.41,0-.75-.34-.75-.75ZM38.13,843.16c0-.41.34-.75.75-.75h0c.42,0,.75.34.75.75h0c0,.42-.33.75-.75.75h0c-.41,0-.75-.33-.75-.75ZM38.13,837.08c0-.42.34-.75.75-.75h0c.42,0,.75.33.75.75h0c0,.41-.33.75-.75.75h0c-.41,0-.75-.34-.75-.75ZM38.13,830.99c0-.42.34-.75.75-.75h0c.42,0,.75.33.75.75h0c0,.41-.33.75-.75.75h0c-.41,0-.75-.34-.75-.75ZM38.13,824.9c0-.41.34-.75.75-.75h0c.42,0,.75.34.75.75h0c0,.42-.33.75-.75.75h0c-.41,0-.75-.33-.75-.75ZM38.13,818.82c0-.42.34-.75.75-.75h0c.42,0,.75.33.75.75h0c0,.41-.33.75-.75.75h0c-.41,0-.75-.34-.75-.75ZM38.13,812.73c0-.41.34-.75.75-.75h0c.42,0,.75.34.75.75h0c0,.42-.33.75-.75.75h0c-.41,0-.75-.33-.75-.75ZM38.13,806.65c0-.42.34-.75.75-.75h0c.42,0,.75.33.75.75h0c0,.41-.33.75-.75.75h0c-.41,0-.75-.34-.75-.75ZM38.13,800.56c0-.41.34-.75.75-.75h0c.42,0,.75.34.75.75h0c0,.42-.33.75-.75.75h0c-.41,0-.75-.33-.75-.75ZM38.13,794.48c0-.42.34-.75.75-.75h0c.42,0,.75.33.75.75h0c0,.41-.33.75-.75.75h0c-.41,0-.75-.34-.75-.75ZM38.13,788.39c0-.41.34-.75.75-.75h0c.42,0,.75.34.75.75h0c0,.42-.33.75-.75.75h0c-.41,0-.75-.33-.75-.75ZM38.13,782.31c0-.42.34-.75.75-.75h0c.42,0,.75.33.75.75h0c0,.41-.33.74-.75.74h0c-.41,0-.75-.33-.75-.74ZM38.13,776.22c0-.41.34-.75.75-.75h0c.42,0,.75.34.75.75h0c0,.41-.33.75-.75.75h0c-.41,0-.75-.34-.75-.75ZM38.13,770.14c0-.42.34-.75.75-.75h0c.42,0,.75.33.75.75h0c0,.41-.33.75-.75.75h0c-.41,0-.75-.34-.75-.75ZM38.13,764.05c0-.42.34-.75.75-.75h0c.42,0,.75.33.75.75h0c0,.41-.33.75-.75.75h0c-.41,0-.75-.34-.75-.75ZM38.13,757.96c0-.41.34-.75.75-.75h0c.42,0,.75.34.75.75h0c0,.42-.33.75-.75.75h0c-.41,0-.75-.33-.75-.75ZM38.13,751.88c0-.42.34-.75.75-.75h0c.42,0,.75.33.75.75h0c0,.41-.33.75-.75.75h0c-.41,0-.75-.34-.75-.75ZM38.13,745.79c0-.41.34-.75.75-.75h0c.42,0,.75.34.75.75h0c0,.42-.33.75-.75.75h0c-.41,0-.75-.33-.75-.75ZM38.13,739.71c0-.42.34-.75.75-.75h0c.42,0,.75.33.75.75h0c0,.41-.33.75-.75.75h0c-.41,0-.75-.34-.75-.75ZM38.13,733.62c0-.41.34-.75.75-.75h0c.42,0,.75.34.75.75h0c0,.41-.33.75-.75.75h0c-.41,0-.75-.34-.75-.75ZM38.13,727.54c0-.42.34-.75.75-.75h0c.42,0,.75.33.75.75h0c0,.41-.33.75-.75.75h0c-.41,0-.75-.34-.75-.75ZM38.13,721.45c0-.41.34-.75.75-.75h0c.42,0,.75.34.75.75h0c0,.41-.33.75-.75.75h0c-.41,0-.75-.34-.75-.75ZM38.13,715.36c0-.41.34-.75.75-.75h0c.42,0,.75.34.75.75h0c0,.42-.33.75-.75.75h0c-.41,0-.75-.33-.75-.75ZM38.13,709.28c0-.42.34-.75.75-.75h0c.42,0,.75.33.75.75h0c0,.41-.33.75-.75.75h0c-.41,0-.75-.34-.75-.75ZM38.13,703.19c0-.41.34-.75.75-.75h0c.42,0,.75.34.75.75h0c0,.42-.33.75-.75.75h0c-.41,0-.75-.33-.75-.75ZM38.13,697.11c0-.42.34-.75.75-.75h0c.42,0,.75.33.75.75h0c0,.41-.33.75-.75.75h0c-.41,0-.75-.34-.75-.75ZM38.13,691.02c0-.41.34-.75.75-.75h0c.42,0,.75.34.75.75h0c0,.42-.33.75-.75.75h0c-.41,0-.75-.33-.75-.75ZM38.13,684.94c0-.42.34-.75.75-.75h0c.42,0,.75.33.75.75h0c0,.41-.33.75-.75.75h0c-.41,0-.75-.34-.75-.75ZM38.13,678.85c0-.41.34-.75.75-.75h0c.42,0,.75.34.75.75h0c0,.42-.33.75-.75.75h0c-.41,0-.75-.33-.75-.75ZM38.13,672.76c0-.41.34-.75.75-.75h0c.42,0,.75.34.75.75h0c0,.42-.33.76-.75.76h0c-.41,0-.75-.34-.75-.76ZM38.13,666.68c0-.42.34-.75.75-.75h0c.42,0,.75.33.75.75h0c0,.41-.33.75-.75.75h0c-.41,0-.75-.34-.75-.75Z" fill="#e8f02b"/>
    <path d="M38.88,868.26c-.2,0-.38-.08-.53-.23-.07-.07-.12-.15-.16-.24-.04-.09-.06-.18-.06-.29,0-.19.08-.39.22-.53.29-.28.78-.27,1.06,0,.14.14.22.34.22.53s-.08.39-.22.53c-.14.15-.33.23-.53.23h0Z" fill="#e8f02b"/>
  </g>
  <polygon points="65.75 0 65.75 573.71 38.5 600.95 38.5 656.49 39.5 656.49 39.5 601.37 66.75 574.12 66.75 0 65.75 0" fill="#fff"/>
  <polygon points="77.01 -.01 77.01 581.09 49.76 608.33 49.76 885.48 -.51 935.75 -.51 937.17 50.76 885.9 50.76 608.75 78.01 581.5 78.01 -.01 77.01 -.01" fill="#fff"/>
</svg>